# xmcd
#
# Track frame offsets: 
#        150
#        24814
#        42765
#        59018
#        77337
#        92345
#        116089
#        138586
#        151190
#        169780
#        193749
#        214302
#
# Disc length: 3308 seconds
#
# Revision: 0
# Processed by: cddbd v1.5.2PL0 Copyright (c) Steve Scherf et al.
# Submitted via: ExactAudioCopy v1.0b3
#
DISCID=970cea0c
DTITLE=Beggi Smár - Mood
DYEAR=2011
DGENRE=Blues
TTITLE0=Don't Believe It's True
TTITLE1=Let Me Know
TTITLE2=Warm and Strong
TTITLE3=I Want It All
TTITLE4=What!
TTITLE5=It Hurts Me Too
TTITLE6=I Want You Back
TTITLE7=Moody Rudy
TTITLE8=No Sense
TTITLE9=Wait For Me
TTITLE10=Ride
TTITLE11=Peace
EXTD=
EXTT0=
EXTT1=
EXTT2=
EXTT3=
EXTT4=
EXTT5=
EXTT6=
EXTT7=
EXTT8=
EXTT9=
EXTT10=
EXTT11=
PLAYORDER=
